# xmcd
#
# Track frame offsets:
# 150
# 14927
# 24482
# 41007
# 58667
# 77082
# 92215
# 109032
# 128562
# 144605
# 151695
# 167522
# 182450
#
# Disc length: 2672 seconds
#
#
# Revision: 0
# Processed by: cddbd v1.5.1PL0 Copyright (c) Steve Scherf et al.
# Submitted via: FreeRIP 2.35 
#
DISCID=a10a6e0d
DTITLE=James T and the Last Volunteers - Sharpen Up
DYEAR=1999
DGENRE=Blues
TTITLE0=hey charlotte
TTITLE1=who'll be the next in line?
TTITLE2=blanket thief
TTITLE3=pretty thing
TTITLE4=where can you be
TTITLE5=sharpen up
TTITLE6=vicksburg blues
TTITLE7=i swear
TTITLE8=let my jockey ride
TTITLE9=early fires
TTITLE10=good morning blues
TTITLE11=diddy wah diddy
TTITLE12=landau tops
EXTD=
EXTT0=
EXTT1=
EXTT2=
EXTT3=
EXTT4=
EXTT5=
EXTT6=
EXTT7=
EXTT8=
EXTT9=
EXTT10=
EXTT11=
EXTT12=
PLAYORDER=
